<svg xmlns="http://www.w3.org/2000/svg" width="19" height="19" fill="none" xmlns:v="https://vecta.io/nano"><g fill-rule="evenodd"><path d="M17.833 9.739c-.008.371-.316.666-.687.657l-15.212-.339c-.371-.008-.666-.316-.657-.687s.316-.666.687-.657l15.212.339c.371.008.666.316.657.687z" fill="url(#A)"/><path d="M10.653 2.92c.268-.257.694-.247.951.021l6.042 6.317c.257.268.247.694-.021.951l-6.317 6.042c-.268.257-.694.247-.951-.021s-.247-.694.021-.951l5.831-5.577-5.577-5.831c-.257-.268-.247-.694.021-.951z" fill="url(#B)"/></g><defs><linearGradient id="A" x1="5.482" y1="9.779" x2="16.097" y2="6.282" gradientUnits="userSpaceOnUse"><stop offset=".115" stop-color="#1a71ff"/><stop offset="1" stop-color="#0045ab" stop-opacity=".93"/></linearGradient><linearGradient id="B" x1="7.587" y1="9.773" x2="16.433" y2="6.859" gradientUnits="userSpaceOnUse"><stop offset=".115" stop-color="#1a71ff"/><stop offset="1" stop-color="#0045ab" stop-opacity=".93"/></linearGradient></defs></svg>