<svg xmlns="http://www.w3.org/2000/svg" width="364" height="364" fill="none" xmlns:v="https://vecta.io/nano"><style><![CDATA[.B{color-interpolation-filters:sRGB}.C{flood-opacity:0}.D{fill-rule:evenodd}.E{shape-rendering:crispEdges}]]></style><g filter="url(#A)" class="D E"><g filter="url(#B)"><path d="M323.212 52.163a22.75 22.75 0 0 0-16.087-6.663h-182a22.75 22.75 0 0 0-22.75 22.75v125.125c0 6.034 2.397 11.82 6.663 16.087s10.053 6.663 16.087 6.663h133.047l53.179 42.972c3.408 2.755 8.097 3.306 12.051 1.417s6.473-5.881 6.473-10.264v-182a22.75 22.75 0 0 0-6.663-16.087zM125.125 68.25h182v158.183l-37.782-30.53a11.37 11.37 0 0 0-7.149-2.528H125.125V68.25z" fill="#001f58" fill-opacity=".5"/></g><g filter="url(#C)"><path d="M125.125 125.125a11.38 11.38 0 0 0-11.375-11.375H56.875a22.75 22.75 0 0 0-22.75 22.75v182c0 4.383 2.518 8.376 6.473 10.264s8.643 1.338 12.052-1.417l53.179-42.972h133.047c6.034 0 11.82-2.397 16.087-6.663s6.663-10.053 6.663-16.087V204.75a11.38 11.38 0 0 0-11.375-11.375 11.38 11.38 0 0 0-11.375 11.375v56.875H101.806a11.37 11.37 0 0 0-7.149 2.528l-37.782 30.53V136.5h56.875a11.38 11.38 0 0 0 11.375-11.375z" fill="#001f58" fill-opacity=".5"/></g></g><defs><filter id="A" x="-6" y="-6" width="376" height="376" filterUnits="userSpaceOnUse" class="B"><feFlood class="C"/><feBlend in="SourceGraphic"/><feGaussianBlur stdDeviation="3"/></filter><filter id="B" x="98.375" y="45.5" width="235.5" height="224.125" filterUnits="userSpaceOnUse" class="B"><feFlood result="A" class="C"/><feColorMatrix in="SourceAlpha" values="0 0 0 0 0 0 0 0 0 0 0 0 0 0 0 0 0 0 127 0" result="B"/><feOffset dy="4"/><feGaussianBlur stdDeviation="2"/><feComposite in2="B" operator="out"/><feColorMatrix values="0 0 0 0 0 0 0 0 0 0 0 0 0 0 0 0 0 0 0.5 0"/><feBlend in2="A"/><feBlend in="SourceGraphic"/></filter><filter id="C" x="30.125" y="113.75" width="235.5" height="224.125" filterUnits="userSpaceOnUse" class="B"><feFlood result="A" class="C"/><feColorMatrix in="SourceAlpha" values="0 0 0 0 0 0 0 0 0 0 0 0 0 0 0 0 0 0 127 0" result="B"/><feOffset dy="4"/><feGaussianBlur stdDeviation="2"/><feComposite in2="B" operator="out"/><feColorMatrix values="0 0 0 0 0 0 0 0 0 0 0 0 0 0 0 0 0 0 0.5 0"/><feBlend in2="A"/><feBlend in="SourceGraphic"/></filter></defs></svg>