<svg xmlns="http://www.w3.org/2000/svg" width="50" height="56" fill="none" xmlns:v="https://vecta.io/nano"><path d="M.833.438l4.399 49.386 19.739 5.504 19.794-5.524L49.168.438H.833zm39.196 11.315l-1.464 16.452.004.089-.006.204v-.002l-1.04 11.504-.115 1.022L25 44.453h0l-.01.008-12.386-3.451-.839-9.511h6.074l.431 4.836 6.731 1.824-.002.004v-.001l6.756-1.85.714-7.875H18.347l-.121-1.331-.276-3.119-.145-1.675h15.203l.553-6.125H10.405l-.121-1.33-.276-3.12-.145-1.675h30.31l-.145 1.69h0z" fill="#1572b6"/></svg>