<svg xmlns="http://www.w3.org/2000/svg" width="56" height="56" fill="none" xmlns:v="https://vecta.io/nano"><path d="M54.575 25.54L30.461 1.428a3.56 3.56 0 0 0-5.03 0l-5.006 5.008 6.352 6.352c1.477-.498 3.169-.164 4.345 1.012.561.561.952 1.269 1.129 2.042s.134 1.581-.126 2.33l6.122 6.122c1.481-.511 3.19-.181 4.372 1.004a4.23 4.23 0 0 1-1.373 6.903 4.23 4.23 0 0 1-3.24 0 4.23 4.23 0 0 1-1.373-.918c-.59-.591-.993-1.343-1.157-2.162s-.082-1.668.236-2.441l-5.708-5.709-.001 15.024a4.25 4.25 0 0 1 1.12.8c1.653 1.652 1.653 4.33 0 5.986s-4.333 1.652-5.985 0-1.788-4.333-.136-5.986c.409-.408.812-.717 1.249-.923V20.708c-.437-.207-.84-.513-1.25-.924-1.252-1.251-1.486-3.089-.843-4.627L17.93 8.896 1.413 25.429a3.56 3.56 0 0 0 .009 5.031l24.118 24.112a3.56 3.56 0 0 0 5.032 0l24.001-24a3.56 3.56 0 0 0 .002-5.032h0z" fill="#f34f29"/></svg>