<svg xmlns="http://www.w3.org/2000/svg" width="26" height="26" fill="none" xmlns:v="https://vecta.io/nano"><path d="M9.75008 20.6123C4.33341 22.2373 4.33341 17.904 2.16675 17.3623M17.3334 23.8623V19.6698C17.3741 19.1532 17.3043 18.6339 17.1287 18.1464C16.9531 17.6589 16.6758 17.2143 16.3151 16.8423C19.7167 16.4631 23.2917 15.174 23.2917 9.25896C23.2915 7.74644 22.7097 6.29193 21.6667 5.19646C22.1606 3.87318 22.1257 2.41051 21.5692 1.11229C21.5692 1.11229 20.2909 0.733128 17.3334 2.71563C14.8504 2.04269 12.2331 2.04269 9.75008 2.71563C6.79258 0.733128 5.51425 1.11229 5.51425 1.11229C4.95782 2.41051 4.9229 3.87318 5.41675 5.19646C4.36605 6.30005 3.78365 7.76771 3.79175 9.29146C3.79175 15.1631 7.36675 16.4523 10.7684 16.8748C10.412 17.2431 10.1371 17.6823 9.96167 18.1639C9.78621 18.6454 9.71412 19.1585 9.75008 19.6698V23.8623" stroke="url(#A)" stroke-width="2" stroke-linecap="round" stroke-linejoin="round"/><defs><linearGradient id="A" x1="15.517" y1="3.712" x2="24.569" y2="23.737" gradientUnits="userSpaceOnUse"><stop stop-color="#1a71ff"/><stop offset="1" stop-color="#0045ab" stop-opacity=".93"/></linearGradient></defs></svg>