<svg xmlns="http://www.w3.org/2000/svg" width="26" height="26" fill="none" xmlns:v="https://vecta.io/nano"><g fill-rule="evenodd"><path d="M13 9.75a3.25 3.25 0 1 0 0 6.5 3.25 3.25 0 1 0 0-6.5zM8.125 13c0-2.692 2.183-4.875 4.875-4.875s4.875 2.183 4.875 4.875-2.183 4.875-4.875 4.875S8.125 15.692 8.125 13z" fill="url(#A)"/><path d="M8.531 4.469c-2.244 0-4.062 1.819-4.062 4.063v8.938c0 2.244 1.819 4.062 4.063 4.062h8.938c2.244 0 4.062-1.819 4.062-4.062V8.531c0-2.244-1.819-4.062-4.062-4.062H8.531zM2.844 8.531a5.69 5.69 0 0 1 5.688-5.687h8.938a5.69 5.69 0 0 1 5.687 5.688v8.938a5.69 5.69 0 0 1-5.687 5.687H8.531a5.69 5.69 0 0 1-5.687-5.687V8.531z" fill="url(#B)"/></g><path d="M18.281 8.938A1.22 1.22 0 0 0 19.5 7.719 1.22 1.22 0 0 0 18.281 6.5a1.22 1.22 0 0 0-1.219 1.219 1.22 1.22 0 0 0 1.219 1.219z" fill="url(#C)"/><defs><linearGradient id="A" x1="14.287" y1="9.25" x2="17.967" y2="18.03" gradientUnits="userSpaceOnUse"><stop stop-color="#1a71ff"/><stop offset="1" stop-color="#0045ab" stop-opacity=".93"/></linearGradient><linearGradient id="B" x1="15.68" y1="5.188" x2="23.348" y2="23.479" gradientUnits="userSpaceOnUse"><stop stop-color="#1a71ff"/><stop offset="1" stop-color="#0045ab" stop-opacity=".93"/></linearGradient><linearGradient id="C" x1="18.603" y1="6.781" x2="19.523" y2="8.976" gradientUnits="userSpaceOnUse"><stop stop-color="#1a71ff"/><stop offset="1" stop-color="#0045ab" stop-opacity=".93"/></linearGradient></defs></svg>