<svg xmlns="http://www.w3.org/2000/svg" width="48" height="48" fill="none" xmlns:v="https://vecta.io/nano"><path d="M2 0a2 2 0 0 0-2 2v44a2 2 0 0 0 2 2h44a2 2 0 0 0 2-2V2a2 2 0 0 0-2-2H2zm23.39 40.901c-.709 1.44-2.061 2.385-3.628 2.842-2.408.553-4.711.238-6.425-.791-.642-.394-1.205-.907-1.683-1.501-.646-.803-.296-1.944.582-2.482l1.692-1.036c.26-.159.519-.108.671.157h0c.466.781.868 1.334 1.659 1.722.776.265 2.481.434 3.139-.932.402-.695.274-2.929.274-5.401l.016-9.592c.002-1.105.897-2 2.001-2h.496c1.105 0 2 .895 2.001 2l-.001 10.346c.01 2.527.229 4.779-.795 6.667zm18.652-1.27c-1.563 5.346-10.277 5.52-13.759 1.988l-.635-.712c-.678-.779-.316-1.907.578-2.422l.428-.247c.921-.532 2.053-.202 2.823.532.63.601 1.349.982 2.33 1.186 2.207.27 4.428-.489 3.93-2.833-.512-1.915-4.52-2.38-7.247-4.428-2.769-1.86-3.418-6.379-1.142-8.961.758-.955 2.052-1.668 3.409-2.01l1.416-.183c2.719-.055 4.419.663 5.666 2.056h0c.752.762.629 1.89-.274 2.467h0c-.993.635-2.531.287-3.571-.268a3.07 3.07 0 0 0-.469-.202c-1.206-.366-2.728.032-3.044 1.307-.101.362-.09.701.049 1.26.024.098.056.195.105.283.558 1.019 2.124 1.491 3.534 2.139 4.236 1.718 5.666 3.56 6.018 5.753.339 1.888-.082 3.112-.146 3.295z" fill="#f0db4f"/></svg>