<svg xmlns="http://www.w3.org/2000/svg" width="26" height="26" fill="none" xmlns:v="https://vecta.io/nano"><g stroke-width="1.3" stroke-linejoin="round"><path d="M17.3333 8.66667C19.0572 8.66667 20.7105 9.35149 21.9294 10.5705C23.1484 11.7895 23.8333 13.4428 23.8333 15.1667V22.75H19.4999V15.1667C19.4999 14.592 19.2716 14.0409 18.8653 13.6346C18.459 13.2283 17.9079 13 17.3333 13C16.7586 13 16.2075 13.2283 15.8012 13.6346C15.3949 14.0409 15.1666 14.592 15.1666 15.1667V22.75H10.8333V15.1667C10.8333 13.4428 11.5181 11.7895 12.7371 10.5705C13.956 9.35149 15.6093 8.66667 17.3333 8.66667V8.66667Z" stroke="url(#A)"/><path d="M6.50008 9.75H2.16675V22.75H6.50008V9.75Z" stroke="url(#B)"/><path d="M4.33341 6.5C5.53003 6.5 6.50008 5.52995 6.50008 4.33333C6.50008 3.13672 5.53003 2.16667 4.33341 2.16667C3.1368 2.16667 2.16675 3.13672 2.16675 4.33333C2.16675 5.52995 3.1368 6.5 4.33341 6.5Z" stroke="url(#C)"/></g><defs><linearGradient id="A" x1="19.049" y1="10.292" x2="24.662" y2="22.653" gradientUnits="userSpaceOnUse"><stop stop-color="#1a71ff"/><stop offset="1" stop-color="#0045ab" stop-opacity=".93"/></linearGradient><linearGradient id="B" x1="4.905" y1="11.25" x2="11.61" y2="16.582" gradientUnits="userSpaceOnUse"><stop stop-color="#1a71ff"/><stop offset="1" stop-color="#0045ab" stop-opacity=".93"/></linearGradient><linearGradient id="C" x1="4.905" y1="2.667" x2="6.541" y2="6.569" gradientUnits="userSpaceOnUse"><stop stop-color="#1a71ff"/><stop offset="1" stop-color="#0045ab" stop-opacity=".93"/></linearGradient></defs></svg>