<svg xmlns="http://www.w3.org/2000/svg" xmlns:xlink="http://www.w3.org/1999/xlink" width="113" height="64" fill="none" xmlns:v="https://vecta.io/nano"><g stroke-width="3.5" stroke-linejoin="round"><path d="M43.8454 40.8055L49.4759 28.4392C50.6298 25.9048 48.0083 23.3024 45.4824 24.4749L16.1496 38.091C13.902 39.1343 13.8167 42.2983 16.0048 43.4612L45.0376 58.8912C47.568 60.236 50.3633 57.6069 49.1758 54.999L43.8454 43.2917C43.4858 42.502 43.4858 41.5952 43.8454 40.8055Z" fill="url(#A)" stroke="url(#A)"/><path d="M64.8697 39.2444L94.534 22.2814C96.6613 21.0649 96.5117 17.9491 94.2776 16.9421L78.5644 9.85957L64.6731 3.59822C62.159 2.46505 59.5765 5.03876 60.7011 7.55665L65.9673 19.3475C66.295 20.0814 66.3146 20.9161 66.0216 21.6646L60.5869 35.5465C59.555 38.1823 62.4124 40.6495 64.8697 39.2444Z" fill="url(#B)" stroke="url(#B)"/><path d="M34.8583 11.8142L5.39582 25.3828C3.16029 26.4123 3.0473 29.5474 5.20291 30.7352L35.0393 47.176C37.5433 48.5557 40.3749 45.9834 39.2412 43.3588L33.6695 30.4603C33.3455 29.7101 33.3415 28.8602 33.6584 28.107L38.8784 15.7028C39.9402 13.1795 37.3449 10.6691 34.8583 11.8142Z" stroke="url(#C)"/><path d="M107.71 28.797L77.4755 14.6531C75.0067 13.4982 72.4015 15.9678 73.4229 18.4947L78.8266 31.8634C79.1147 32.576 79.1182 33.3719 78.8366 34.087L73.6507 47.2542C72.6167 49.8797 75.4499 52.3508 77.9106 50.9695L107.908 34.1304C110.037 32.9349 109.922 29.8318 107.71 28.797Z" stroke="url(#D)"/></g><path d="M59.1643 21.9268L51.0225 42.5528" stroke="url(#E)" stroke-width="3" stroke-linecap="round" stroke-linejoin="round"/><defs><linearGradient id="A" x1="37.319" y1="25.905" x2="53.115" y2="63.751" xlink:href="#F"><stop stop-color="#1a71ff"/><stop offset="1" stop-color="#0045ab" stop-opacity=".93"/></linearGradient><linearGradient id="B" x1="84.127" y1="5.333" x2="100.654" y2="43.889" xlink:href="#F"><stop stop-color="#1a71ff"/><stop offset="1" stop-color="#0045ab" stop-opacity=".93"/></linearGradient><linearGradient id="C" x1="42.718" y1="5.907" x2="-10.327" y2="29.578" xlink:href="#F"><stop stop-color="#1971ff"/><stop offset=".609" stop-color="#fff" stop-opacity=".54"/><stop offset="1" stop-color="#1157c1" stop-opacity=".49"/></linearGradient><linearGradient id="D" x1="113" y1="8.69" x2="59.852" y2="31.792" xlink:href="#F"><stop stop-color="#1971ff"/><stop offset=".609" stop-color="#fff" stop-opacity=".54"/><stop offset="1" stop-color="#1157c1" stop-opacity=".49"/></linearGradient><linearGradient id="E" x1="56.168" y1="24.307" x2="67.067" y2="34.57" xlink:href="#F"><stop stop-color="#1a71ff"/><stop offset="1" stop-color="#0045ab" stop-opacity=".93"/></linearGradient><linearGradient id="F" gradientUnits="userSpaceOnUse"/></defs></svg>