<svg xmlns="http://www.w3.org/2000/svg" width="56" height="56" fill="none" xmlns:v="https://vecta.io/nano"><path d="M49.337 13.271L30.045 2.069c-1.217-.693-2.801-.693-4.027 0L6.519 13.271c-1.256.722-2.144 2.08-2.144 3.532v22.375c0 1.452.912 2.81 2.167 3.536l5.152 2.926c2.462 1.213 3.333 1.213 4.453 1.213 3.646 0 5.728-2.205 5.728-6.05V18.714c0-.312-.162-.776-.469-.776h-2.46c-.312 0-1.009.464-1.009.776v22.089c0 1.705-1.542 3.401-4.423 1.96l-5.323-3.068c-.185-.101-.316-.303-.316-.517V16.803c0-.211.243-.423.43-.531L27.74 5.089a.68.68 0 0 1 .63 0l19.198 11.18c.184.111.119.316.119.533v22.375c0 .213.08.421-.102.524l-19.288 11.19c-.165.099-.37.099-.552 0l-4.947-2.953c-.149-.087-.326-.118-.469-.038-1.376.78-1.63.884-2.921 1.331-.318.111-.786.303.179.844l6.474 3.83c.618.357 1.319.545 2.033.545a4.07 4.07 0 0 0 2.042-.545l19.2-11.192c1.256-.731 1.851-2.084 1.851-3.536V16.803c0-1.452-.595-2.806-1.85-3.532zM34.086 35.632c-5.13 0-6.26-1.415-6.637-3.966-.044-.275-.277-.603-.556-.603h-2.507c-.31 0-.559.376-.559.685 0 3.266 1.776 7.224 10.261 7.224 6.142 0 9.664-2.387 9.664-6.61 0-4.188-2.829-5.287-8.786-6.075-6.021-.796-6.633-1.198-6.633-2.608 0-1.163.518-2.714 4.976-2.714 3.983 0 5.452.855 6.056 3.54.052.252.282.434.543.434h2.517c.155 0 .303-.063.411-.173.105-.119.161-.268.147-.428-.39-4.623-3.462-6.778-9.674-6.778-5.526 0-8.823 2.334-8.823 6.245 0 4.243 3.28 5.415 8.585 5.94 6.346.622 6.839 1.55 6.839 2.798 0 2.168-1.74 3.091-5.823 3.091z" fill="#83cd29"/></svg>