<svg xmlns="http://www.w3.org/2000/svg" xmlns:xlink="http://www.w3.org/1999/xlink" width="24" height="24" fill="none" xmlns:v="https://vecta.io/nano"><g fill-rule="evenodd"><path d="M8.03 15.97a.75.75 0 0 1 0 1.061l-5.25 5.25A.75.75 0 0 1 1.72 21.22l5.25-5.25a.75.75 0 0 1 1.061 0z" fill="url(#A)"/><path d="M22.28 1.72a.75.75 0 0 1 0 1.061l-5.25 5.25A.75.75 0 0 1 15.97 6.97l5.25-5.25a.75.75 0 0 1 1.061 0z" fill="url(#B)"/><path d="M6.997 12.815a1.5 1.5 0 0 0 0 2.121l2.068 2.068a1.5 1.5 0 0 0 2.121 0l5.82-5.82a1.5 1.5 0 0 0 0-2.121l-2.068-2.068a1.5 1.5 0 0 0-2.121 0l-5.82 5.82zm-1.061 3.182a3 3 0 0 1 0-4.243l5.82-5.82a3 3 0 0 1 4.243 0l2.068 2.068a3 3 0 0 1 0 4.243l-5.82 5.82a3 3 0 0 1-4.243 0l-2.068-2.068z" fill="url(#C)"/><path d="M8.095 8.095a.75.75 0 0 1 1.061 0l6.75 6.75a.75.75 0 0 1-1.061 1.061l-6.75-6.75a.75.75 0 0 1 0-1.061z" fill="url(#D)"/><path d="M18.038 14.013a.75.75 0 0 1 .949-.474l2.25.75a.75.75 0 1 1-.474 1.423l-2.25-.75a.75.75 0 0 1-.474-.949z" fill="url(#E)"/><path d="M2.288 8.763a.75.75 0 0 1 .949-.474l2.25.75a.75.75 0 1 1-.474 1.423l-2.25-.75a.75.75 0 0 1-.474-.949z" fill="url(#F)"/><use xlink:href="#H" fill="url(#G)"/><use xlink:href="#H" x="5.25" y="15.75" fill="url(#G)"/></g><defs><linearGradient id="A" x1="8.25" y1="15.328" x2="-.048" y2="18.799" xlink:href="#I"><stop offset=".029" stop-color="#1971ff"/><stop offset=".541" stop-color="#fff"/><stop offset="1" stop-color="#1157c1"/></linearGradient><linearGradient id="B" x1="22.5" y1="1.078" x2="14.202" y2="4.549" xlink:href="#I"><stop offset=".029" stop-color="#1971ff"/><stop offset=".541" stop-color="#fff"/><stop offset="1" stop-color="#1157c1"/></linearGradient><linearGradient id="C" x1="13.483" y1="3.419" x2="10.133" y2="20.188" xlink:href="#I"><stop offset=".029" stop-color="#1971ff"/><stop offset=".541" stop-color="#fff"/><stop offset="1" stop-color="#1157c1"/></linearGradient><linearGradient id="D" x1="16.125" y1="7.359" x2="5.983" y2="11.602" xlink:href="#I"><stop offset=".029" stop-color="#1971ff"/><stop offset=".541" stop-color="#fff"/><stop offset="1" stop-color="#1157c1"/></linearGradient><linearGradient id="E" x1="21.75" y1="13.359" x2="18.105" y2="15.901" xlink:href="#I"><stop offset=".029" stop-color="#1971ff"/><stop offset=".541" stop-color="#fff"/><stop offset="1" stop-color="#1157c1"/></linearGradient><linearGradient id="F" x1="6" y1="8.109" x2="2.355" y2="10.651" xlink:href="#I"><stop offset=".029" stop-color="#1971ff"/><stop offset=".541" stop-color="#fff"/><stop offset="1" stop-color="#1157c1"/></linearGradient><linearGradient id="G" x1="10.5" y1="2.016" x2="7.442" y2="2.783" xlink:href="#I"><stop offset=".029" stop-color="#1971ff"/><stop offset=".541" stop-color="#fff"/><stop offset="1" stop-color="#1157c1"/></linearGradient><path id="H" d="M8.763 2.289a.75.75 0 0 1 .949.474l.75 2.25a.75.75 0 1 1-1.423.474l-.75-2.25a.75.75 0 0 1 .474-.949z"/><linearGradient id="I" gradientUnits="userSpaceOnUse"/></defs></svg>