<svg xmlns="http://www.w3.org/2000/svg" width="56" height="56" fill="none" xmlns:v="https://vecta.io/nano"><path fill-rule="evenodd" d="M28.041 55.223c14.995-.023 27.134-12.221 27.134-27.267 0-14.802-12.083-26.992-26.518-27.25C13.497.435.829 12.737.825 27.654.82 43.001 12.905 55.245 28.041 55.223zm-.044-53.197c14.397-.005 25.868 11.692 25.863 26.372-.005 13.86-11.78 25.454-25.853 25.457C13.67 53.858 2.14 42.234 2.141 27.776 2.142 13.692 13.851 2.03 27.997 2.026zM17.131 15.705c.235.784-.424 1.057-1.124 1.112l-2.33.178 8.455 25.188c.203-.332.287-.426.323-.535l4.66-14.03c.139-.427.07-.994-.082-1.433-.806-2.328-1.772-4.604-2.479-6.96-.483-1.613-1.125-2.656-3.031-2.469-.325.032-.721-.667-1.084-1.028.44-.263.876-.745 1.32-.752 3.882-.06 7.764-.059 11.645.004.445.007.882.503 1.322.772-.385.352-.717.879-1.167 1.015-.722.218-1.523.177-2.388.254l8.465 25.183 3.636-12.092c1.035-3.5.418-6.769-1.453-9.852-.563-.927-1.254-1.827-1.573-2.838-.362-1.15-.663-2.46-.471-3.613.326-1.955 1.826-2.926 3.856-3.112C32.521.385 15.064 4.076 8.631 15.278l7.206-.297c.447-.006 1.189.372 1.294.723zm4.426 34.112c-.052.151-.055.319-.095.57 4.788 1.327 9.483 1.232 14.288-.388l-7.341-20.107-6.852 19.926zm-3.7-.909L6.797 18.567c-4.99 9.747-1.194 24.617 11.06 30.341zm33.437-19.496c.351-4.609-1.239-10.989-2.612-11.867-.153 1.695-.046 3.581-.533 5.3-1.145 4.049-2.545 8.028-3.893 12.017L39.77 47.841c7.04-4.173 10.909-10.333 11.526-18.429z" fill="#1a71ff"/></svg>