<svg xmlns="http://www.w3.org/2000/svg" width="26" height="26" fill="none" xmlns:v="https://vecta.io/nano"><g fill-rule="evenodd"><path d="M10.992 9.034c.264-.141.585-.126.834.04l4.875 3.25a.81.81 0 0 1 0 1.352l-4.875 3.25a.81.81 0 0 1-.834.04c-.264-.141-.429-.417-.429-.716v-6.5a.81.81 0 0 1 .429-.716zm1.196 2.235v3.464L14.785 13l-2.598-1.732z" fill="url(#A)"/><path d="M12.999 4.103h-.014-.051l-.191.001-.701.015-2.354.134c-1.85.156-4.204.48-6.017 1.173l-.012.005A2.45 2.45 0 0 0 2.2 7.088l-.001.003c-.253.99-.574 2.826-.574 5.909s.321 4.919.574 5.909l.001.003c.096.371.279.715.532 1.003a2.45 2.45 0 0 0 .927.655l.012.005c1.813.693 4.168 1.017 6.017 1.173l2.354.134.701.015.191.001h.051.014.002.014.051l.191-.001.701-.015 2.354-.134c1.849-.156 4.204-.48 6.017-1.173l.012-.005a2.45 2.45 0 0 0 .927-.655c.253-.288.436-.631.532-1.003v-.003c.253-.99.574-2.826.574-5.909s-.321-4.919-.574-5.909v-.003a2.45 2.45 0 0 0-.532-1.002c-.253-.288-.571-.512-.927-.655l-.012-.005c-1.813-.693-4.168-1.017-6.017-1.173l-2.354-.134-.701-.015-.191-.001h-.051-.014-.002zm-.003 16.169h.009.003.011.045l.178-.001.669-.014 2.266-.129c1.817-.153 3.978-.463 5.567-1.069.118-.048.223-.123.307-.218s.146-.211.178-.336c.214-.839.523-2.537.523-5.505s-.308-4.666-.523-5.505c-.032-.124-.094-.239-.178-.336s-.189-.17-.307-.218c-1.589-.606-3.75-.916-5.567-1.069l-2.266-.129-.669-.014-.178-.001h-.045-.011-.002-.009-.003-.011-.045l-.178.001-.669.014-2.266.129c-1.817.153-3.978.463-5.567 1.069-.118.048-.223.123-.307.218s-.146.211-.179.336c-.214.839-.523 2.537-.523 5.505s.309 4.666.523 5.505c.033.124.094.239.179.336s.189.17.307.218c1.589.606 3.75.916 5.567 1.069l2.266.129.669.014.178.001h.045.011.003z" fill="url(#B)"/></g><defs><linearGradient id="A" x1="14.67" y1="9.875" x2="18.207" y2="16.624" gradientUnits="userSpaceOnUse"><stop stop-color="#1a71ff"/><stop offset="1" stop-color="#0045ab" stop-opacity=".93"/></linearGradient><linearGradient id="B" x1="16.002" y1="6.156" x2="21.579" y2="23.167" gradientUnits="userSpaceOnUse"><stop stop-color="#1a71ff"/><stop offset="1" stop-color="#0045ab" stop-opacity=".93"/></linearGradient></defs></svg>