<svg xmlns="http://www.w3.org/2000/svg" width="32" height="32" fill="#fff" fill-rule="evenodd" xmlns:v="https://vecta.io/nano"><path d="M13.528 11.118a1 1 0 0 1 1.027.05l6 4a1 1 0 0 1 0 1.664l-6 4A1 1 0 0 1 13 20v-8a1 1 0 0 1 .528-.882zM15 13.869v4.263L18.197 16 15 13.869zm.999-8.819h-.017-.063l-.236.002-.862.018-2.897.165c-2.276.192-5.174.591-7.406 1.444l-.015.006a3.01 3.01 0 0 0-1.796 2.04l-.001.004C2.395 9.946 2 12.206 2 16s.395 6.054.706 7.273l.001.004a3.01 3.01 0 0 0 .655 1.234c.312.354.703.63 1.141.806l.015.006c2.231.852 5.129 1.251 7.406 1.444l2.897.165.862.018.236.002h.063.017.003.017.063l.236-.002.863-.018 2.897-.165c2.276-.192 5.174-.591 7.406-1.444l.015-.006a3.01 3.01 0 0 0 1.141-.806c.312-.354.536-.777.655-1.234l.001-.004C29.605 22.054 30 19.794 30 16s-.395-6.054-.706-7.273l-.001-.004c-.119-.457-.343-.88-.655-1.234a3.01 3.01 0 0 0-1.141-.806l-.015-.006c-2.231-.853-5.129-1.251-7.406-1.444l-2.897-.165-.863-.018-.236-.002h-.063H16h-.003zm-.004 19.9h.011.003.013.055l.219-.002.824-.017 2.789-.159c2.236-.189 4.896-.57 6.851-1.316a1.01 1.01 0 0 0 .377-.268 1.02 1.02 0 0 0 .22-.413C27.62 21.743 28 19.653 28 16s-.38-5.743-.643-6.775a1.01 1.01 0 0 0-.597-.681c-1.956-.745-4.615-1.127-6.851-1.316l-2.789-.159-.824-.017-.219-.001h-.055-.013-.003-.011-.003-.013-.055l-.219.001-.824.017-2.789.159c-2.236.189-4.896.57-6.852 1.316a1.01 1.01 0 0 0-.597.681C4.38 10.257 4 12.347 4 16s.38 5.743.643 6.775a1.01 1.01 0 0 0 .597.681c1.956.745 4.616 1.127 6.852 1.316l2.789.159.824.017.219.002h.055.013.003z"/></svg>